<?xml version="1.0" encoding="utf-8"?>
<!-- Generator: Adobe Illustrator 24.0.1, SVG Export Plug-In . SVG Version: 6.00 Build 0)  -->
<svg version="1.1" id="Capa_1" xmlns="http://www.w3.org/2000/svg" xmlns:xlink="http://www.w3.org/1999/xlink" x="0px" y="0px"
	 viewBox="0 0 594.3 594.3" style="enable-background:new 0 0 594.3 594.3;" xml:space="preserve">
<style type="text/css">
	.st0{fill:#1D2228;}
	.st1{fill:#FB8122;}
</style>
<path class="st0" d="M459.5,428h-256c-13.5,0-24.5-11-24.5-24.5v-256c0-13.5,11-24.5,24.5-24.5h256c13.5,0,24.5,11,24.5,24.5v256
	C484,417,473,428,459.5,428z"/>
<g>
	<path class="st1" d="M349,277.2h13.1v-12.8h7.5c0.3,0,0.7,0,1,0v12.8h13.1v-13.8c2.2-0.4,4.1-1,5.8-1.6c4.5-1.8,8-4.4,10.5-7.9
		c2.5-3.5,3.7-7.3,3.7-11.4c0-3.4-0.8-6.6-2.5-9.4c-1.6-2.8-3.8-5-6.6-6.5c-1.9-1.1-4.7-2.1-8.3-3.1c3.4-1.1,6.1-2.6,8.2-4.4
		c2.1-1.8,3.7-3.8,4.7-6.1c1.1-2.3,1.7-4.7,1.7-7.3c0-3.5-1-6.8-3.1-9.7c-2.1-3-5-5.2-8.9-6.8c-1.5-0.6-3.2-1.1-5.2-1.5v-13.7h-13.1
		v12.8h-8.4v-12.8H349v12.8h-20v10.7h3c2,0,3.4,0.2,4.1,0.6c0.7,0.4,1.2,0.9,1.5,1.5c0.3,0.6,0.4,2.1,0.4,4.4v43.2
		c0,2.3-0.1,3.7-0.4,4.4c-0.3,0.6-0.8,1.1-1.5,1.5c-0.7,0.3-2.1,0.5-4.1,0.5h-3v10.7h20L349,277.2L349,277.2z M357.4,199.4h8.5
		c5,0,8.4,0.3,10.3,0.9c1.9,0.6,3.4,1.6,4.4,3.1c1,1.5,1.5,3.2,1.5,5.3c0,1.9-0.5,3.7-1.6,5.2c-1.1,1.5-2.7,2.6-4.8,3.4
		c-2.1,0.8-5.4,1.1-9.9,1.1h-8.5L357.4,199.4L357.4,199.4z M357.4,229.7h10c4.4,0,7.7,0.4,9.8,1.2c2.1,0.8,3.8,2,4.8,3.6
		c1.1,1.6,1.6,3.5,1.6,5.8c0,2.7-0.8,5-2.3,7c-1.5,1.9-3.4,3.2-5.5,3.8c-2.1,0.6-4.9,0.9-8.2,0.9H362c-1.9,0-3.1-0.1-3.5-0.3
		c-0.4-0.2-0.7-0.6-0.9-1.1c-0.1-0.4-0.2-1.8-0.2-4.2V229.7L357.4,229.7z M480,239.5c0,13.9-11.3,25.3-25.3,25.3
		c-4.7,0-9-1.4-12.7-3.6l-60.3,60.3c0.4,1.8,0.7,3.6,0.7,5.6c0,13.9-11.3,25.3-25.3,25.3c-13.9,0-25.2-11.3-25.2-25.3
		c0-2.2,0.4-4.3,0.9-6.3L304.6,296c-4.6,4.4-10.7,7.1-17.6,7.1c-4.6,0-8.8-1.3-12.5-3.5l-42.6,43.2c1,2.7,1.7,5.7,1.7,8.8
		c0,14-11.3,25.3-25.3,25.3S183,365.6,183,351.6c0-13.9,11.3-25.3,25.3-25.3c5.1,0,9.9,1.6,13.9,4.2l41.9-42.4
		c-1.4-3.1-2.2-6.6-2.2-10.3c0-13.9,11.3-25.3,25.3-25.3c13.9,0,25.3,11.3,25.3,25.3c0,1.3-0.2,2.6-0.4,3.9l29.3,25.8
		c4.4-3.6,9.9-5.8,15.9-5.8c6.2,0,11.9,2.4,16.3,6.1l58.3-58.3c-1.4-3.1-2.1-6.5-2.1-10.1c0-14,11.3-25.3,25.3-25.3
		C468.7,214.2,480,225.5,480,239.5z"/>
</g>
</svg>
