<svg xmlns="http://www.w3.org/2000/svg" xmlns:xlink="http://www.w3.org/1999/xlink" viewBox="0 0 266.42 160.67"><defs><style>.cls-1{fill:none;}.cls-2{isolation:isolate;}.cls-3{clip-path:url(#clip-path);}.cls-4{fill:#fecf10;}.cls-5{fill:#fed210;}.cls-6{fill:#fed411;}.cls-7{fill:#fed711;}.cls-8{fill:#fed911;}.cls-9{fill:#fedc11;}.cls-10{fill:#fede12;}.cls-11{clip-path:url(#clip-path-2);}.cls-12{fill:#fecd10;}.cls-13{clip-path:url(#clip-path-3);}.cls-14{fill:#f1b700;}.cls-15{fill:#cf8e00;}.cls-16{fill:#e59c00;}.cls-17{fill:#ffd02b;}.cls-18{clip-path:url(#clip-path-4);}.cls-19{fill:#fed32c;}.cls-20{fill:#fed42c;}.cls-21{fill:#fed72c;}.cls-22{fill:#fed92d;}.cls-23{fill:#fedb2d;}.cls-24{fill:#fedd2d;}.cls-25{fill:#fee02d;}.cls-26{fill:#ffe543;}</style><clipPath id="clip-path" transform="translate(-109.56 -165.84)"><path class="cls-1" d="M250.7,275.57c35-11.7,63.77-29.34,78.77-46.55L338,253.85c-15,17.21-43.75,34.84-78.77,46.54-40.56,13.55-78.42,15.44-98.78,6.7q-4.26-12.42-8.51-24.83C172.28,291,210.14,289.12,250.7,275.57Z"/></clipPath><clipPath id="clip-path-2" transform="translate(-109.56 -165.84)"><path class="cls-1" d="M151.92,282.26q4.25,12.4,8.51,24.83c-7.44-3.2-12.55-7.82-14.6-13.79l-8.51-24.83C139.37,274.45,144.48,279.07,151.92,282.26Z"/></clipPath><clipPath id="clip-path-3" transform="translate(-109.56 -165.84)"><path class="cls-1" d="M340,199.86c-.08-.27-.16-.54-.25-.81l8.51,24.83c.09.26.17.53.25.8C351,233.34,347,243.52,338,253.85L329.47,229C338.47,218.7,342.51,208.52,340,199.86Z"/></clipPath><clipPath id="clip-path-4" transform="translate(-109.56 -165.84)"><path class="cls-1" d="M119.32,302.39l-8.5-24.83c-.12-.34-.23-.67-.33-1-8.48-29.14,42-71.92,112.68-95.54,69.86-23.35,133.37-19.26,143.05,9l8.51,24.82c-9.68-28.22-73.19-32.31-143-9C161,229.44,110.52,272.22,119,301.37,119.1,301.71,119.21,302.05,119.32,302.39Z"/></clipPath></defs><title>bitcoin2</title><g id="Layer2"><g class="cls-2"><g class="cls-3"><g class="cls-2"><path class="cls-4" d="M155.21,304.37l-8.51-24.82a41.21,41.21,0,0,0,8.7,4.05l8.51,24.82a41.21,41.21,0,0,1-8.7-4.05Z" transform="translate(-109.56 -165.84)"/><path class="cls-5" d="M163.91,308.42,155.4,283.6a65.89,65.89,0,0,0,9.17,2.35l8.51,24.83a67.3,67.3,0,0,1-9.17-2.36Z" transform="translate(-109.56 -165.84)"/><path class="cls-6" d="M173.08,310.78,164.57,286a92,92,0,0,0,10,1.28l8.51,24.82a94.24,94.24,0,0,1-10-1.27Z" transform="translate(-109.56 -165.84)"/><path class="cls-7" d="M183.06,312.05l-8.51-24.82c3.57.28,7.33.39,11.26.35l8.51,24.82c-3.93.05-7.69-.07-11.26-.35Z" transform="translate(-109.56 -165.84)"/><path class="cls-8" d="M194.32,312.4l-8.51-24.82c4.26-.05,8.71-.3,13.32-.73l8.51,24.83c-4.61.43-9.06.67-13.32.72Z" transform="translate(-109.56 -165.84)"/><path class="cls-9" d="M207.64,311.68l-8.51-24.83c5.4-.5,11-1.27,16.81-2.32l8.51,24.83c-5.79,1-11.41,1.81-16.81,2.32Z" transform="translate(-109.56 -165.84)"/><path class="cls-10" d="M224.45,309.36l-8.51-24.83a249.2,249.2,0,0,0,34.76-9,257.39,257.39,0,0,0,27.79-11.09L287,289.3a257.39,257.39,0,0,1-27.79,11.09,250.69,250.69,0,0,1-34.76,9Z" transform="translate(-109.56 -165.84)"/><path class="cls-9" d="M287,289.3l-8.51-24.82c5.28-2.48,10.3-5.08,15.05-7.76l8.51,24.82c-4.75,2.69-9.78,5.28-15.05,7.76Z" transform="translate(-109.56 -165.84)"/><path class="cls-8" d="M302.05,281.54l-8.51-24.82q6.25-3.54,11.83-7.26l8.51,24.82q-5.56,3.71-11.83,7.26Z" transform="translate(-109.56 -165.84)"/><path class="cls-7" d="M313.88,274.28l-8.51-24.82q5.2-3.47,9.75-7l8.5,24.82q-4.53,3.57-9.74,7Z" transform="translate(-109.56 -165.84)"/><path class="cls-6" d="M323.62,267.24l-8.5-24.82q4.49-3.53,8.27-7.1l8.5,24.83c-2.51,2.37-5.28,4.75-8.27,7.09Z" transform="translate(-109.56 -165.84)"/><path class="cls-5" d="M331.89,260.15l-8.5-24.83a87.57,87.57,0,0,0,7.17-7.57l8.51,24.82a87.73,87.73,0,0,1-7.18,7.58Z" transform="translate(-109.56 -165.84)"/></g></g></g><g class="cls-2"><g class="cls-11"><g class="cls-2"><path class="cls-12" d="M145.83,293.3l-8.51-24.83c1.53,4.46,4.75,8.16,9.38,11.08l8.51,24.82c-4.63-2.92-7.85-6.62-9.38-11.07Z" transform="translate(-109.56 -165.84)"/><path class="cls-4" d="M155.21,304.37l-8.51-24.82a41.21,41.21,0,0,0,8.7,4.05l8.51,24.82a41.21,41.21,0,0,1-8.7-4.05Z" transform="translate(-109.56 -165.84)"/></g></g></g><g class="cls-2"><g class="cls-13"><g class="cls-2"><path class="cls-5" d="M331.89,260.15l-8.5-24.83a87.57,87.57,0,0,0,7.17-7.57l8.51,24.82a87.73,87.73,0,0,1-7.18,7.58Z" transform="translate(-109.56 -165.84)"/><path class="cls-4" d="M339.07,252.57l-8.51-24.82a58.37,58.37,0,0,0,6.1-8.77l8.51,24.82a57.87,57.87,0,0,1-6.1,8.77Z" transform="translate(-109.56 -165.84)"/><path class="cls-12" d="M345.17,243.8,336.66,219c3.75-6.78,5-13.3,3.33-19.12-.08-.27-.16-.54-.25-.81l8.51,24.83c.09.26.17.53.25.8,1.7,5.83.42,12.33-3.33,19.12Z" transform="translate(-109.56 -165.84)"/></g></g></g><path class="cls-14" d="M253.18,293.47c52.75-15.68,97.52-45.78,96.16-68.35-1.53-25.47-59.26-28.55-123.18-5.74-58.48,20.87-91.25,52.87-78.84,71.13C158.5,307,204.11,308.05,253.18,293.47Z" transform="translate(-109.56 -165.84)"/><path class="cls-15" d="M243.44,257.77c-9.37,3.13-18.88,5.64-20.26.91s7.12-8.25,16.07-11.24l21-7,3.12,10.69Z" transform="translate(-109.56 -165.84)"/><path class="cls-15" d="M202.28,265.41c-2.77-8.09,10.54-14.89,16.07-17.63l-5.87-17.18C207,233.31,194,240,196.79,248Z" transform="translate(-109.56 -165.84)"/><polygon class="cls-15" points="158.78 64.39 155.48 53.15 165.7 49.74 169 60.98 158.78 64.39"/><polygon class="cls-15" points="127.23 74.93 123.89 63.39 136.37 59.22 139.71 70.76 127.23 74.93"/><polygon class="cls-16" points="137.35 62.67 134.6 53.66 153.67 47.29 156.43 56.3 137.35 62.67"/><polygon class="cls-16" points="105.81 73.21 102.73 64.85 122.45 58.19 124.88 66.84 105.81 73.21"/><path class="cls-15" d="M248.75,272.49l19-6.34L265,257l-19,6.34c-7.63,2.55-15.59,5.87-14.43,9.84S240.73,275.17,248.75,272.49Z" transform="translate(-109.56 -165.84)"/><path class="cls-6" d="M262.4,311.34C191.7,335,127.48,330.5,119,301.37s42-71.93,112.68-95.55,134.89-19.16,143.37,10S333.09,287.72,262.4,311.34Zm-27.54-94.57c-56,18.72-96,52.62-89.29,75.71s57.6,26.64,113.64,7.91,96-52.62,89.29-75.71S290.9,198,234.86,216.77Z" transform="translate(-109.56 -165.84)"/><path class="cls-17" d="M222.34,268.92c-10.21,2.15-18.56,1.67-20.14-3.78-1.64-5.63,5-11.86,15.77-17.15l-2.6-8.94,19.07-6.38,2.35,8.1,12.48-4.17-2.35-8.09L266,222.13l2.35,8.1,10.23-3.42L290,266l-10.22,3.42L282,277l-19.07,6.38-2.21-7.6L248.21,280l2.21,7.6L231.35,294l-2.53-8.7c-9.09,1.48-15.77.63-17.09-3.9C210.62,277.55,215,273,222.34,268.92Zm16.91-21.48c-8.95,3-17.42,6.61-16.07,11.24s10.89,2.22,20.26-.91l19.91-6.65-3.12-10.69-21,7Zm28.47,18.71L265,257l-19,6.34c-7.63,2.55-15.59,5.87-14.43,9.84s9.09,2,17.11-.64l19-6.34Z" transform="translate(-109.56 -165.84)"/><g class="cls-2"><g class="cls-18"><g class="cls-2"><path class="cls-19" d="M119.32,302.39l-8.5-24.83c-.12-.34-.23-.67-.33-1-2.14-7.35-.53-15.57,4.21-24.13l8.51,24.82c-4.74,8.56-6.35,16.78-4.21,24.14.1.34.21.68.32,1Z" transform="translate(-109.56 -165.84)"/><path class="cls-20" d="M123.21,277.23l-8.51-24.82a72.13,72.13,0,0,1,7.7-11.07l8.51,24.82a72.62,72.62,0,0,0-7.7,11.07Z" transform="translate(-109.56 -165.84)"/><path class="cls-21" d="M130.91,266.16l-8.51-24.82a110.49,110.49,0,0,1,9-9.56L140,256.6a112,112,0,0,0-9.05,9.56Z" transform="translate(-109.56 -165.84)"/><path class="cls-22" d="M140,256.6l-8.51-24.82q4.77-4.51,10.44-9l8.51,24.82q-5.66,4.46-10.44,9Z" transform="translate(-109.56 -165.84)"/><path class="cls-23" d="M150.4,247.64l-8.51-24.82q5.73-4.5,12.29-8.88l8.51,24.82c-4.37,2.92-8.48,5.89-12.29,8.88Z" transform="translate(-109.56 -165.84)"/><path class="cls-24" d="M162.69,238.76l-8.51-24.82q7-4.68,14.93-9.16l8.51,24.82q-7.89,4.47-14.93,9.16Z" transform="translate(-109.56 -165.84)"/><path class="cls-25" d="M177.62,229.6l-8.51-24.82c6-3.39,12.34-6.67,19-9.79l8.51,24.82c-6.65,3.12-13,6.4-19,9.79Z" transform="translate(-109.56 -165.84)"/><path class="cls-26" d="M196.61,219.81,188.1,195a322.25,322.25,0,0,1,35.07-14A313,313,0,0,1,267,169.69l8.51,24.82a313,313,0,0,0-43.85,11.31,324.29,324.29,0,0,0-35.07,14Z" transform="translate(-109.56 -165.84)"/><path class="cls-25" d="M275.53,194.51,267,169.69c7.3-1.32,14.39-2.29,21.2-2.93l8.51,24.82c-6.81.64-13.9,1.62-21.2,2.93Z" transform="translate(-109.56 -165.84)"/><path class="cls-24" d="M296.73,191.58l-8.51-24.82c5.82-.55,11.43-.85,16.8-.91l8.51,24.82c-5.37.06-11,.37-16.8.91Z" transform="translate(-109.56 -165.84)"/><path class="cls-23" d="M313.53,190.67,305,165.85q7.44-.09,14.21.43l8.51,24.82c-4.51-.34-9.26-.49-14.21-.43Z" transform="translate(-109.56 -165.84)"/><path class="cls-22" d="M327.74,191.1l-8.51-24.82a116.63,116.63,0,0,1,12.59,1.62l8.51,24.82a119.19,119.19,0,0,0-12.59-1.62Z" transform="translate(-109.56 -165.84)"/><path class="cls-21" d="M340.33,192.72l-8.51-24.82a81.29,81.29,0,0,1,11.57,3l8.51,24.82a83.37,83.37,0,0,0-11.57-3Z" transform="translate(-109.56 -165.84)"/><path class="cls-20" d="M351.9,195.69l-8.51-24.82a52.23,52.23,0,0,1,11,5.11l8.51,24.83a52,52,0,0,0-11-5.12Z" transform="translate(-109.56 -165.84)"/><path class="cls-19" d="M362.89,200.81,354.38,176c5.84,3.69,9.91,8.36,11.84,14l8.51,24.82c-1.93-5.63-6-10.3-11.84-14Z" transform="translate(-109.56 -165.84)"/></g></g></g></g></svg>