<svg xmlns="http://www.w3.org/2000/svg" xmlns:xlink="http://www.w3.org/1999/xlink" viewBox="0 0 178.99 231.34"><defs><style>.cls-1{fill:none;}.cls-2{isolation:isolate;}.cls-3{clip-path:url(#clip-path);}.cls-4{fill:#fecf10;}.cls-5{fill:#fed110;}.cls-6{fill:#fed211;}.cls-7{fill:#fed411;}.cls-8{fill:#fed611;}.cls-9{fill:#fed811;}.cls-10{fill:#feda11;}.cls-11{fill:#fedc11;}.cls-12{fill:#fedd12;}.cls-13{fill:#fedf12;}.cls-14{fill:#fee112;}.cls-15{fill:#fee312;}.cls-16{fill:#fee83f;}.cls-17{fill:#feeb52;}.cls-18{fill:#feec61;}.cls-19{fill:#feee6e;}.cls-20{fill:#fef079;}.cls-21{fill:#fff082;}.cls-22{fill:#fff18b;}.cls-23{clip-path:url(#clip-path-2);}.cls-24{fill:#fecd10;}.cls-25{fill:#fecb10;}.cls-26{fill:#fec910;}.cls-27{fill:#fec710;}.cls-28{fill:#fec60f;}.cls-29{fill:#fec40f;}.cls-30{clip-path:url(#clip-path-3);}.cls-31{fill:#febe0f;}.cls-32{fill:#fec00f;}.cls-33{fill:#fec20f;}.cls-34{fill:#f3a500;}.cls-35{fill:#cf8e00;}.cls-36{fill:#ffd12b;}.cls-37{clip-path:url(#clip-path-4);}.cls-38{clip-path:url(#clip-path-5);}</style><clipPath id="clip-path" transform="translate(-162.03 -136.69)"><path class="cls-1" d="M292.74,201.86,310.18,200c18.16,34,19.17,80.67.61,112.51l-17.44,1.82C311.91,282.53,310.9,235.81,292.74,201.86Z"/></clipPath><clipPath id="clip-path-2" transform="translate(-162.03 -136.69)"><path class="cls-1" d="M282.09,185.89a69,69,0,0,0-22.75-18.48l17.44-1.82a69,69,0,0,1,22.75,18.48,95.88,95.88,0,0,1,10.65,16l-17.44,1.82A95.88,95.88,0,0,0,282.09,185.89Z"/></clipPath><clipPath id="clip-path-3" transform="translate(-162.03 -136.69)"><path class="cls-1" d="M252.28,344c15.7-1.64,30.55-11.59,41.07-29.62l17.44-1.82c-10.51,18-25.37,28-41.07,29.61Z"/></clipPath><clipPath id="clip-path-4" transform="translate(-162.03 -136.69)"><path class="cls-1" d="M230.84,138.81,248.28,137c-19.81,2.07-38.55,14.63-51.81,37.37L179,176.18C192.29,153.44,211,140.88,230.84,138.81Z"/></clipPath><clipPath id="clip-path-5" transform="translate(-162.03 -136.69)"><path class="cls-1" d="M272.2,365.91l-17.45,1.82c-21.07,2.2-43.36-7.49-61.51-29.44C158,295.71,151.65,223.13,179,176.18l17.44-1.82c-27.37,46.95-21,119.53,14.21,162.11C228.83,358.42,251.12,368.1,272.2,365.91Z"/></clipPath></defs><title>bitocoin</title><g id="Layer2"><g class="cls-2"><g class="cls-3"><g class="cls-2"><path class="cls-4" d="M310.79,312.55l-17.44,1.82c0-.05.06-.1.08-.15l17.45-1.83-.09.16Z" transform="translate(-162.03 -136.69)"/><path class="cls-5" d="M310.88,312.39l-17.45,1.83c.53-.91,1-1.83,1.53-2.75l17.44-1.82c-.49.93-1,1.84-1.52,2.74Z" transform="translate(-162.03 -136.69)"/><path class="cls-6" d="M312.4,309.65,295,311.47c.49-.93,1-1.87,1.43-2.82l17.45-1.82c-.47.95-.94,1.89-1.44,2.82Z" transform="translate(-162.03 -136.69)"/><path class="cls-7" d="M313.84,306.83l-17.45,1.82c.49-1,1-2,1.43-3.06l17.44-1.82c-.46,1-.93,2.05-1.42,3.06Z" transform="translate(-162.03 -136.69)"/><path class="cls-8" d="M315.26,303.77l-17.44,1.82c.45-1,.89-2.08,1.31-3.13l17.44-1.82c-.42,1.05-.86,2.09-1.31,3.13Z" transform="translate(-162.03 -136.69)"/><path class="cls-9" d="M316.57,300.64l-17.44,1.82c.4-1,.8-2,1.17-3.09l17.44-1.81c-.37,1-.76,2.06-1.17,3.08Z" transform="translate(-162.03 -136.69)"/><path class="cls-10" d="M317.74,297.56l-17.44,1.81c.37-1,.73-2.07,1.07-3.12l17.44-1.82c-.34,1.05-.7,2.09-1.07,3.13Z" transform="translate(-162.03 -136.69)"/><path class="cls-11" d="M318.81,294.43l-17.44,1.82c.33-1,.64-2.05.94-3.09l17.44-1.81c-.3,1-.61,2.06-.94,3.08Z" transform="translate(-162.03 -136.69)"/><path class="cls-12" d="M319.75,291.35l-17.44,1.81c.3-1,.59-2.07.85-3.12l17.44-1.82c-.26,1-.55,2.09-.85,3.13Z" transform="translate(-162.03 -136.69)"/><path class="cls-13" d="M320.6,288.22,303.16,290c.27-1,.52-2.07.76-3.12l17.44-1.82c-.24,1-.49,2.09-.76,3.12Z" transform="translate(-162.03 -136.69)"/><path class="cls-14" d="M321.36,285.1l-17.44,1.82c.24-1.05.46-2.11.66-3.16L322,281.94c-.21,1.05-.44,2.11-.67,3.16Z" transform="translate(-162.03 -136.69)"/><path class="cls-15" d="M322,281.94l-17.45,1.82c.22-1.08.41-2.15.59-3.24l17.44-1.82c-.18,1.09-.37,2.16-.58,3.24Z" transform="translate(-162.03 -136.69)"/><path class="cls-16" d="M322.61,278.7l-17.44,1.82c.18-1.08.34-2.17.5-3.26l17.44-1.82c-.15,1.09-.32,2.18-.5,3.26Z" transform="translate(-162.03 -136.69)"/><path class="cls-17" d="M323.11,275.44l-17.44,1.82c.16-1.17.3-2.34.43-3.52l17.44-1.82c-.13,1.18-.27,2.35-.43,3.52Z" transform="translate(-162.03 -136.69)"/><path class="cls-18" d="M323.54,271.92l-17.44,1.82q.19-1.78.33-3.6l17.45-1.82c-.1,1.21-.21,2.41-.34,3.6Z" transform="translate(-162.03 -136.69)"/><path class="cls-19" d="M323.88,268.32l-17.45,1.82q.17-2.11.27-4.26l17.44-1.82c-.07,1.43-.15,2.85-.26,4.26Z" transform="translate(-162.03 -136.69)"/><path class="cls-20" d="M324.14,264.06l-17.44,1.82c.07-1.61.11-3.23.12-4.85l17.44-1.82c0,1.62-.05,3.24-.12,4.85Z" transform="translate(-162.03 -136.69)"/><path class="cls-21" d="M324.26,259.21,306.82,261c0-2.39,0-4.77-.16-7.16l17.45-1.82c.11,2.39.16,4.77.15,7.16Z" transform="translate(-162.03 -136.69)"/><path class="cls-22" d="M324.11,252.05l-17.45,1.82a130.6,130.6,0,0,0-1.45-14.09L322.65,238a130.89,130.89,0,0,1,1.46,14.09Z" transform="translate(-162.03 -136.69)"/><path class="cls-21" d="M322.65,238l-17.44,1.82q-.56-3.54-1.31-7l17.44-1.82c.5,2.32.94,4.67,1.31,7Z" transform="translate(-162.03 -136.69)"/><path class="cls-20" d="M321.34,230.94l-17.44,1.82c-.35-1.65-.74-3.3-1.16-4.93L320.18,226q.63,2.46,1.16,4.93Z" transform="translate(-162.03 -136.69)"/><path class="cls-19" d="M320.18,226l-17.44,1.82c-.33-1.27-.67-2.55-1-3.81l17.44-1.82c.37,1.27.71,2.54,1,3.81Z" transform="translate(-162.03 -136.69)"/><path class="cls-18" d="M319.14,222.2,301.7,224c-.36-1.21-.72-2.42-1.11-3.61L318,218.59c.39,1.19.76,2.4,1.11,3.61Z" transform="translate(-162.03 -136.69)"/><path class="cls-17" d="M318,218.59l-17.44,1.82q-.54-1.65-1.11-3.27l17.44-1.82q.57,1.62,1.11,3.27Z" transform="translate(-162.03 -136.69)"/><path class="cls-16" d="M316.92,215.32l-17.44,1.82c-.38-1.06-.78-2.12-1.18-3.16l17.44-1.82c.4,1,.8,2.1,1.18,3.16Z" transform="translate(-162.03 -136.69)"/><path class="cls-15" d="M315.74,212.16,298.3,214c-.4-1-.8-2-1.22-3l17.44-1.81c.42,1,.83,2,1.22,3Z" transform="translate(-162.03 -136.69)"/><path class="cls-14" d="M314.52,209.16,297.08,211c-.42-1-.85-2-1.3-2.95l17.45-1.82c.44,1,.87,2,1.29,3Z" transform="translate(-162.03 -136.69)"/><path class="cls-13" d="M313.23,206.2,295.78,208c-.44-1-.9-2-1.37-2.91l17.44-1.82q.7,1.44,1.38,2.91Z" transform="translate(-162.03 -136.69)"/><path class="cls-12" d="M311.85,203.29l-17.44,1.82c-.47-1-1-1.91-1.46-2.86l17.44-1.82c.5.95,1,1.9,1.46,2.86Z" transform="translate(-162.03 -136.69)"/><path class="cls-11" d="M310.39,200.43,293,202.25c-.51-1-1-1.92-1.57-2.86l17.44-1.82c.54.94,1.06,1.9,1.57,2.86Z" transform="translate(-162.03 -136.69)"/></g></g></g><g class="cls-2"><g class="cls-23"><g class="cls-2"><path class="cls-11" d="M310.39,200.43,293,202.25c-.51-1-1-1.92-1.57-2.86l17.44-1.82c.54.94,1.06,1.9,1.57,2.86Z" transform="translate(-162.03 -136.69)"/><path class="cls-10" d="M308.82,197.57l-17.44,1.82c-.54-.95-1.1-1.88-1.66-2.81l17.44-1.82c.56.93,1.12,1.86,1.66,2.81Z" transform="translate(-162.03 -136.69)"/><path class="cls-9" d="M307.16,194.76l-17.44,1.82c-.59-1-1.19-1.9-1.81-2.83l17.44-1.82c.62.93,1.22,1.88,1.81,2.83Z" transform="translate(-162.03 -136.69)"/><path class="cls-8" d="M305.35,191.93l-17.44,1.82c-.61-.93-1.24-1.84-1.88-2.74l17.44-1.82c.64.9,1.27,1.81,1.88,2.74Z" transform="translate(-162.03 -136.69)"/><path class="cls-7" d="M303.47,189.19,286,191c-.59-.82-1.19-1.63-1.8-2.42l17.45-1.82c.61.79,1.2,1.6,1.79,2.42Z" transform="translate(-162.03 -136.69)"/><path class="cls-6" d="M301.68,186.77l-17.45,1.82c-.6-.8-1.22-1.59-1.86-2.36l17.45-1.82c.63.78,1.25,1.56,1.86,2.36Z" transform="translate(-162.03 -136.69)"/><path class="cls-5" d="M299.82,184.41l-17.45,1.82c-.09-.11-.18-.23-.28-.34-.7-.86-1.42-1.69-2.14-2.49l17.44-1.82c.72.8,1.44,1.64,2.14,2.49l.29.34Z" transform="translate(-162.03 -136.69)"/><path class="cls-4" d="M297.39,181.58,280,183.4c-.85-1-1.72-1.88-2.59-2.76l17.45-1.82q1.31,1.32,2.58,2.76Z" transform="translate(-162.03 -136.69)"/><path class="cls-24" d="M294.81,178.82l-17.45,1.82c-.89-.91-1.78-1.78-2.69-2.62l17.44-1.82c.91.84,1.81,1.71,2.7,2.62Z" transform="translate(-162.03 -136.69)"/><path class="cls-25" d="M292.11,176.2,274.67,178c-.93-.86-1.87-1.68-2.82-2.47l17.44-1.82c.95.79,1.89,1.61,2.82,2.47Z" transform="translate(-162.03 -136.69)"/><path class="cls-26" d="M289.29,173.73l-17.44,1.82c-1-.81-2-1.58-3-2.32l17.44-1.82c1,.74,2,1.51,3,2.32Z" transform="translate(-162.03 -136.69)"/><path class="cls-27" d="M286.34,171.41l-17.44,1.82c-1.08-.79-2.16-1.54-3.26-2.25l17.45-1.82c1.09.71,2.17,1.46,3.25,2.25Z" transform="translate(-162.03 -136.69)"/><path class="cls-28" d="M283.09,169.16,265.64,171c-1.16-.76-2.34-1.47-3.52-2.13L279.56,167c1.18.66,2.36,1.37,3.53,2.13Z" transform="translate(-162.03 -136.69)"/><path class="cls-29" d="M279.56,167l-17.44,1.82c-1.31-.72-2.62-1.39-3.94-2L275.62,165c1.32.6,2.63,1.27,3.94,2Z" transform="translate(-162.03 -136.69)"/></g></g></g><g class="cls-2"><g class="cls-30"><g class="cls-2"><path class="cls-31" d="M269.72,342.16,252.28,344a45.55,45.55,0,0,0,13.49-3.58l17.45-1.82a45.37,45.37,0,0,1-13.5,3.57Z" transform="translate(-162.03 -136.69)"/><path class="cls-32" d="M283.22,338.59l-17.45,1.82a47.46,47.46,0,0,0,5.49-2.82l17.44-1.82a48.15,48.15,0,0,1-5.48,2.82Z" transform="translate(-162.03 -136.69)"/><path class="cls-33" d="M288.7,335.77l-17.44,1.82a49.68,49.68,0,0,0,4.19-2.77L292.89,333a48.11,48.11,0,0,1-4.19,2.77Z" transform="translate(-162.03 -136.69)"/><path class="cls-29" d="M292.89,333l-17.44,1.82c1.19-.86,2.35-1.79,3.5-2.77l17.43-1.82c-1.14,1-2.3,1.91-3.49,2.77Z" transform="translate(-162.03 -136.69)"/><path class="cls-28" d="M296.38,330.23,279,332.05c1-.88,2-1.81,3-2.78l17.44-1.82c-1,1-2,1.9-3,2.78Z" transform="translate(-162.03 -136.69)"/><path class="cls-27" d="M299.39,327.45,282,329.27c.91-.9,1.8-1.83,2.67-2.81l17.44-1.82c-.87,1-1.76,1.91-2.67,2.81Z" transform="translate(-162.03 -136.69)"/><path class="cls-26" d="M302.06,324.64l-17.44,1.82c.84-.94,1.66-1.91,2.47-2.92l17.44-1.82c-.81,1-1.63,2-2.47,2.92Z" transform="translate(-162.03 -136.69)"/><path class="cls-25" d="M304.53,321.72l-17.44,1.82c.77-1,1.53-2,2.26-3l17.44-1.82c-.74,1-1.49,2-2.26,3Z" transform="translate(-162.03 -136.69)"/><path class="cls-24" d="M306.79,318.73l-17.44,1.82c.72-1,1.43-2,2.11-3.11l17.44-1.82c-.68,1.07-1.39,2.11-2.11,3.11Z" transform="translate(-162.03 -136.69)"/><path class="cls-4" d="M308.9,315.62l-17.44,1.82c.64-1,1.27-2,1.89-3.07l17.44-1.82c-.62,1.05-1.24,2.08-1.89,3.07Z" transform="translate(-162.03 -136.69)"/></g></g></g><path class="cls-34" d="M209.75,186.86c22.41-36.55,63-40.6,87.64-5.28,23,33,25.1,92.25,7.75,127.8-18.31,37.5-55.24,45.26-83.27,13.48C191.71,288.67,186,225.7,209.75,186.86Z" transform="translate(-162.03 -136.69)"/><polygon class="cls-35" points="71.16 90.99 62.77 92.59 67.61 84.29 76 82.69 71.16 90.99"/><polygon class="cls-35" points="76 82.69 67.42 84.3 58.26 73.21 66.83 71.6 76 82.69"/><path class="cls-36" d="M267.71,231.91c5.22-4.89,11.72-5.5,18.3,2.45,6.8,8.22,8.22,18.71,5.75,28.41l10.82,13.08-7.37,12.65-9.79-11.84L280.57,285l9.8,11.83L283,309.47l-9.79-11.84-3.95,6.77-47.39-57.28,4-6.78-9.17-11.08L224,216.59l9.17,11.09,4.85-8.3-9.17-11.09,7.37-12.65,10.51,12.71c5.07-3.73,10.73-3.5,16.21,3.13C267.54,217,269,224.66,267.71,231.91ZM277,267c3.47-5.94,6-12.77.38-19.53s-10.08-1.57-13.69,4.63l-7.72,13.23,12.91,15.6L277,267Zm-39.2-23.63,11.11,13.43,7.35-12.6c2.95-5.06,5.38-11.37.58-17.17s-8.59-1.59-11.69,3.74l-7.35,12.6Z" transform="translate(-162.03 -136.69)"/><polygon class="cls-35" points="66.83 71.6 58.26 73.21 65.63 60.56 74.2 58.95 66.83 71.6"/><polygon class="cls-35" points="59.82 110.43 51.24 112.04 55.19 105.26 63.77 103.66 59.82 110.43"/><polygon class="cls-35" points="107.21 167.72 98.68 169.32 51.29 112.03 59.82 110.43 107.21 167.72"/><polygon class="cls-35" points="63.77 103.66 55.07 105.27 45.9 94.18 54.6 92.57 63.77 103.66"/><polygon class="cls-35" points="54.6 92.57 45.9 94.18 53.28 81.44 61.99 79.91 54.6 92.57"/><g class="cls-2"><g class="cls-37"><g class="cls-2"><path class="cls-4" d="M196.47,174.36,179,176.18c.77-1.33,1.57-2.62,2.38-3.88l17.44-1.82c-.81,1.26-1.61,2.55-2.38,3.88Z" transform="translate(-162.03 -136.69)"/><path class="cls-24" d="M198.85,170.48l-17.44,1.82q1.29-2,2.66-3.92l17.44-1.82c-.91,1.27-1.79,2.58-2.66,3.92Z" transform="translate(-162.03 -136.69)"/><path class="cls-25" d="M201.51,166.56l-17.44,1.82q1.4-1.95,2.86-3.78l17.44-1.82q-1.47,1.83-2.86,3.78Z" transform="translate(-162.03 -136.69)"/><path class="cls-26" d="M204.37,162.78l-17.44,1.82q1.51-1.9,3.11-3.68l17.44-1.82q-1.59,1.77-3.11,3.68Z" transform="translate(-162.03 -136.69)"/><path class="cls-27" d="M207.48,159.1,190,160.92c1.1-1.23,2.23-2.41,3.37-3.54l17.44-1.82c-1.14,1.13-2.27,2.31-3.37,3.54Z" transform="translate(-162.03 -136.69)"/><path class="cls-28" d="M210.85,155.56l-17.44,1.82c1.24-1.23,2.51-2.4,3.79-3.51l17.44-1.82c-1.28,1.11-2.55,2.28-3.79,3.51Z" transform="translate(-162.03 -136.69)"/><path class="cls-29" d="M214.64,152.05l-17.44,1.82q2.18-1.86,4.41-3.5l17.44-1.82q-2.24,1.63-4.41,3.5Z" transform="translate(-162.03 -136.69)"/><path class="cls-33" d="M219.05,148.55l-17.44,1.82c1.73-1.27,3.49-2.43,5.28-3.5l17.44-1.82c-1.79,1.07-3.55,2.23-5.28,3.5Z" transform="translate(-162.03 -136.69)"/><path class="cls-32" d="M224.33,145.05l-17.44,1.82a63,63,0,0,1,6.93-3.55l17.44-1.82a63,63,0,0,0-6.93,3.55Z" transform="translate(-162.03 -136.69)"/><path class="cls-31" d="M231.26,141.5l-17.44,1.82a57.3,57.3,0,0,1,17-4.51L248.28,137a57.6,57.6,0,0,0-17,4.51Z" transform="translate(-162.03 -136.69)"/></g></g></g><g class="cls-2"><g class="cls-38"><g class="cls-2"><path class="cls-31" d="M272.2,365.91l-17.45,1.82a57.66,57.66,0,0,1-17.78-.94L254.41,365a57.7,57.7,0,0,0,17.79.94Z" transform="translate(-162.03 -136.69)"/><path class="cls-32" d="M254.41,365,237,366.79a62.21,62.21,0,0,1-7.7-2.14l17.44-1.82a62.21,62.21,0,0,0,7.7,2.14Z" transform="translate(-162.03 -136.69)"/><path class="cls-33" d="M246.71,362.83l-17.44,1.82c-2-.68-3.92-1.47-5.86-2.35l17.44-1.82c1.94.89,3.9,1.67,5.86,2.35Z" transform="translate(-162.03 -136.69)"/><path class="cls-29" d="M240.85,360.48l-17.44,1.82c-1.67-.77-3.33-1.6-5-2.52L235.88,358c1.65.91,3.3,1.75,5,2.51Z" transform="translate(-162.03 -136.69)"/><path class="cls-28" d="M235.88,358l-17.44,1.81c-1.49-.83-3-1.72-4.45-2.67l17.44-1.82c1.47.95,3,1.85,4.45,2.68Z" transform="translate(-162.03 -136.69)"/><path class="cls-27" d="M231.43,355.29,214,357.11q-2.07-1.35-4.11-2.85l17.45-1.82q2,1.5,4.1,2.85Z" transform="translate(-162.03 -136.69)"/><path class="cls-26" d="M227.33,352.44l-17.45,1.82c-1.24-.93-2.48-1.91-3.72-2.92l17.45-1.82q1.84,1.53,3.72,2.92Z" transform="translate(-162.03 -136.69)"/><path class="cls-25" d="M223.61,349.52l-17.45,1.82q-1.78-1.5-3.56-3.13L220,346.39q1.77,1.64,3.57,3.13Z" transform="translate(-162.03 -136.69)"/><path class="cls-24" d="M220,346.39l-17.44,1.82c-1.14-1-2.28-2.15-3.39-3.29l17.44-1.82q1.68,1.71,3.39,3.29Z" transform="translate(-162.03 -136.69)"/><path class="cls-4" d="M216.65,343.1l-17.44,1.82q-1.65-1.68-3.27-3.48l17.45-1.82q1.61,1.8,3.26,3.48Z" transform="translate(-162.03 -136.69)"/><path class="cls-5" d="M213.39,339.62l-17.45,1.82q-1.37-1.53-2.7-3.15l-.36-.43L210.33,336l.35.43c.89,1.08,1.8,2.13,2.71,3.15Z" transform="translate(-162.03 -136.69)"/><path class="cls-6" d="M210.33,336l-17.45,1.82c-.8-1-1.58-2-2.35-3L208,333.07c.77,1,1.56,2,2.36,3Z" transform="translate(-162.03 -136.69)"/><path class="cls-7" d="M208,333.07l-17.44,1.82c-.77-1-1.52-2-2.26-3.06L205.71,330c.74,1,1.49,2.06,2.26,3.07Z" transform="translate(-162.03 -136.69)"/><path class="cls-8" d="M205.71,330l-17.44,1.83c-.81-1.14-1.6-2.3-2.38-3.47l17.44-1.82c.78,1.18,1.57,2.33,2.38,3.46Z" transform="translate(-162.03 -136.69)"/><path class="cls-9" d="M203.33,326.54l-17.44,1.82c-.78-1.17-1.54-2.37-2.28-3.57L201.05,323q1.11,1.81,2.28,3.57Z" transform="translate(-162.03 -136.69)"/><path class="cls-10" d="M201.05,323l-17.44,1.82c-.71-1.17-1.41-2.35-2.09-3.54L199,319.43c.68,1.19,1.38,2.37,2.09,3.54Z" transform="translate(-162.03 -136.69)"/><path class="cls-11" d="M199,319.43l-17.44,1.82c-.68-1.19-1.35-2.4-2-3.62L197,315.81c.65,1.22,1.31,2.42,2,3.62Z" transform="translate(-162.03 -136.69)"/><path class="cls-12" d="M197,315.81l-17.44,1.82c-.63-1.2-1.25-2.4-1.84-3.61l17.44-1.82c.6,1.21,1.21,2.42,1.84,3.61Z" transform="translate(-162.03 -136.69)"/><path class="cls-13" d="M195.13,312.2,177.69,314c-.6-1.21-1.18-2.43-1.74-3.67l17.44-1.82c.57,1.23,1.14,2.46,1.74,3.67Z" transform="translate(-162.03 -136.69)"/><path class="cls-14" d="M193.39,308.53,176,310.35c-.56-1.24-1.11-2.49-1.64-3.75l17.44-1.81c.53,1.26,1.08,2.51,1.64,3.74Z" transform="translate(-162.03 -136.69)"/><path class="cls-15" d="M191.75,304.79l-17.44,1.81c-.53-1.26-1.05-2.53-1.54-3.8L190.21,301c.49,1.28,1,2.55,1.54,3.81Z" transform="translate(-162.03 -136.69)"/><path class="cls-16" d="M190.21,301l-17.44,1.82c-.51-1.32-1-2.65-1.49-4L188.72,297c.48,1.34,1,2.67,1.49,4Z" transform="translate(-162.03 -136.69)"/><path class="cls-17" d="M188.72,297l-17.44,1.82c-.48-1.36-.94-2.72-1.39-4.1l17.44-1.81c.45,1.37.91,2.74,1.39,4.09Z" transform="translate(-162.03 -136.69)"/><path class="cls-18" d="M187.33,292.9l-17.44,1.81c-.49-1.5-1-3-1.4-4.55l17.44-1.82c.44,1.53.91,3.05,1.4,4.56Z" transform="translate(-162.03 -136.69)"/><path class="cls-19" d="M185.93,288.34l-17.44,1.82c-.46-1.59-.9-3.2-1.32-4.81l17.44-1.82c.42,1.61.86,3.22,1.32,4.81Z" transform="translate(-162.03 -136.69)"/><path class="cls-20" d="M184.61,283.53l-17.44,1.82c-.53-2.06-1-4.13-1.46-6.21l17.44-1.82q.67,3.12,1.46,6.21Z" transform="translate(-162.03 -136.69)"/><path class="cls-21" d="M183.15,277.32l-17.44,1.82c-.63-2.93-1.18-5.89-1.65-8.86l17.44-1.82c.47,3,1,5.93,1.65,8.86Z" transform="translate(-162.03 -136.69)"/><path class="cls-22" d="M181.5,268.46l-17.44,1.82a165.63,165.63,0,0,1-1.84-17.77l17.44-1.83a168.14,168.14,0,0,0,1.84,17.78Z" transform="translate(-162.03 -136.69)"/><path class="cls-21" d="M179.66,250.68l-17.44,1.83c-.14-3-.21-6-.19-9l17.44-1.82c0,3,.05,6,.19,9Z" transform="translate(-162.03 -136.69)"/><path class="cls-20" d="M179.47,241.66,162,243.48q0-3.07.16-6.13l17.44-1.82q-.13,3.06-.16,6.13Z" transform="translate(-162.03 -136.69)"/><path class="cls-19" d="M179.63,235.53l-17.44,1.82c.08-1.8.18-3.59.32-5.37L180,230.16c-.14,1.78-.25,3.58-.33,5.37Z" transform="translate(-162.03 -136.69)"/><path class="cls-18" d="M180,230.16,162.51,232c.12-1.52.26-3,.43-4.54l17.44-1.82c-.17,1.51-.31,3-.42,4.54Z" transform="translate(-162.03 -136.69)"/><path class="cls-17" d="M180.38,225.62l-17.44,1.82c.16-1.48.34-3,.54-4.43l17.44-1.82c-.2,1.47-.38,2.95-.54,4.43Z" transform="translate(-162.03 -136.69)"/><path class="cls-16" d="M180.92,221.19,163.48,223c.19-1.38.4-2.76.63-4.12l17.44-1.83c-.23,1.37-.44,2.75-.63,4.13Z" transform="translate(-162.03 -136.69)"/><path class="cls-15" d="M181.55,217.06l-17.44,1.83c.23-1.37.47-2.73.74-4.08L182.29,213c-.27,1.35-.51,2.71-.74,4.07Z" transform="translate(-162.03 -136.69)"/><path class="cls-14" d="M182.29,213l-17.44,1.82q.39-2,.84-4L183.13,209q-.45,2-.84,4Z" transform="translate(-162.03 -136.69)"/><path class="cls-13" d="M183.13,209l-17.44,1.82c.3-1.32.62-2.64.95-3.94l17.44-1.82c-.33,1.31-.65,2.62-1,3.94Z" transform="translate(-162.03 -136.69)"/><path class="cls-12" d="M184.08,205.06l-17.44,1.82c.34-1.33.7-2.64,1.08-3.94l17.44-1.82c-.38,1.3-.74,2.62-1.08,3.94Z" transform="translate(-162.03 -136.69)"/><path class="cls-11" d="M185.16,201.12l-17.44,1.82c.38-1.31.77-2.61,1.19-3.89l17.44-1.82c-.42,1.29-.82,2.58-1.19,3.89Z" transform="translate(-162.03 -136.69)"/><path class="cls-10" d="M186.35,197.23l-17.44,1.82c.43-1.33.88-2.65,1.35-4l17.44-1.82c-.47,1.31-.92,2.62-1.35,3.95Z" transform="translate(-162.03 -136.69)"/><path class="cls-9" d="M187.7,193.28l-17.44,1.82c.47-1.31,1-2.6,1.47-3.89l17.44-1.82c-.51,1.29-1,2.58-1.47,3.89Z" transform="translate(-162.03 -136.69)"/><path class="cls-8" d="M189.17,189.39l-17.44,1.82c.53-1.33,1.08-2.64,1.66-4l17.44-1.81c-.57,1.3-1.13,2.62-1.66,3.94Z" transform="translate(-162.03 -136.69)"/><path class="cls-7" d="M190.83,185.45l-17.44,1.81c.57-1.3,1.17-2.59,1.79-3.86l17.44-1.82c-.62,1.27-1.21,2.56-1.79,3.87Z" transform="translate(-162.03 -136.69)"/><path class="cls-6" d="M192.62,181.58l-17.44,1.82c.59-1.2,1.19-2.39,1.81-3.56L194.43,178c-.62,1.17-1.22,2.36-1.81,3.56Z" transform="translate(-162.03 -136.69)"/><path class="cls-5" d="M194.43,178,177,179.84c.62-1.17,1.27-2.33,1.93-3.47l17.44-1.82c-.66,1.15-1.3,2.3-1.93,3.47Z" transform="translate(-162.03 -136.69)"/><path class="cls-4" d="M196.36,174.55l-17.44,1.82.11-.19,17.44-1.82-.11.19Z" transform="translate(-162.03 -136.69)"/></g></g></g><path class="cls-32" d="M196.47,174.36c27.38-47,78.12-50.5,113.35-7.92S351.39,281.58,324,328.53,245.89,379,210.68,336.47,169.1,221.31,196.47,174.36ZM310.79,312.55c21.7-37.22,16.65-94.75-11.26-128.48s-68.12-30.92-89.82,6.29S193.05,285.1,221,318.84s68.13,30.93,89.83-6.29Z" transform="translate(-162.03 -136.69)"/></g></svg>