<svg xmlns="http://www.w3.org/2000/svg" xmlns:xlink="http://www.w3.org/1999/xlink" viewBox="0 0 268.27 157.84"><defs><style>.cls-1{fill:none;}.cls-2{isolation:isolate;}.cls-3{clip-path:url(#clip-path);}.cls-4{fill:#fecf10;}.cls-5{fill:#fed210;}.cls-6{fill:#fed411;}.cls-7{fill:#fed711;}.cls-8{fill:#fed911;}.cls-9{fill:#fedc11;}.cls-10{fill:#fede12;}.cls-11{clip-path:url(#clip-path-2);}.cls-12{fill:#fecd10;}.cls-13{clip-path:url(#clip-path-3);}.cls-14{fill:#f1b700;}.cls-15{fill:#cf8e00;}.cls-16{fill:#e59c00;}.cls-17{fill:#ffd02b;}.cls-18{clip-path:url(#clip-path-4);}.cls-19{fill:#fed32c;}.cls-20{fill:#fed42c;}.cls-21{fill:#fed72c;}.cls-22{fill:#fed92d;}.cls-23{fill:#fedb2d;}.cls-24{fill:#fedd2d;}.cls-25{fill:#fee02d;}.cls-26{fill:#ffe543;}</style><clipPath id="clip-path" transform="translate(-130.86 -158.73)"><path class="cls-1" d="M257.81,208c-35.41,10.82-64.68,27.75-80.15,44.61l-7.89-25.1c15.47-16.86,44.75-33.79,80.15-44.61,41-12.54,79-13.45,99.19-4.16l7.88,25.1C336.81,194.52,298.82,195.44,257.81,208Z"/></clipPath><clipPath id="clip-path-2" transform="translate(-130.86 -158.73)"><path class="cls-1" d="M357,203.82l-7.88-25.1c7.37,3.39,12.37,8.15,14.27,14.2l7.89,25.1C369.37,212,364.37,207.21,357,203.82Z"/></clipPath><clipPath id="clip-path-3" transform="translate(-130.86 -158.73)"><path class="cls-1" d="M166.36,281.55c.07.28.15.55.23.82l-7.89-25.1c-.08-.27-.16-.54-.23-.82-2.3-8.74,2-18.84,11.3-29l7.89,25.1C168.37,262.71,164.05,272.81,166.36,281.55Z"/></clipPath><clipPath id="clip-path-4" transform="translate(-130.86 -158.73)"><path class="cls-1" d="M390.18,184.49l7.89,25.1c.11.34.2.68.3,1,7.75,29.43-43.94,71-115.41,92.86-70.63,21.59-134.18,15.85-143.15-12.69l-7.88-25.1c9,28.54,72.52,34.28,143.15,12.69,71.47-21.85,123.15-63.43,115.4-92.86C390.39,185.17,390.29,184.83,390.18,184.49Z"/></clipPath></defs><title>bitcoin1</title><g id="Layer2"><g class="cls-2"><g class="cls-3"><g class="cls-2"><path class="cls-4" d="M354.27,181.58l7.88,25.1a41.42,41.42,0,0,0-8.61-4.29l-7.89-25.1a41.5,41.5,0,0,1,8.62,4.29Z" transform="translate(-130.86 -158.73)"/><path class="cls-5" d="M345.65,177.29l7.89,25.1a65.89,65.89,0,0,0-9.14-2.6l-7.88-25.1a65.74,65.74,0,0,1,9.13,2.6Z" transform="translate(-130.86 -158.73)"/><path class="cls-6" d="M336.52,174.69l7.88,25.1a94.28,94.28,0,0,0-10-1.54l-7.89-25.1a94.88,94.88,0,0,1,10,1.54Z" transform="translate(-130.86 -158.73)"/><path class="cls-7" d="M326.55,173.15l7.89,25.1c-3.57-.37-7.34-.58-11.28-.64l-7.89-25.09c3.94,0,7.71.26,11.28.63Z" transform="translate(-130.86 -158.73)"/><path class="cls-8" d="M315.27,172.52l7.89,25.09c-4.27-.06-8.74.07-13.37.39l-7.89-25.1c4.63-.32,9.1-.44,13.37-.38Z" transform="translate(-130.86 -158.73)"/><path class="cls-9" d="M301.9,172.9l7.89,25.1c-5.43.37-11.08,1-16.91,1.89L285,174.79c5.82-.9,11.48-1.52,16.9-1.89Z" transform="translate(-130.86 -158.73)"/><path class="cls-10" d="M285,174.79l7.88,25.1A249.07,249.07,0,0,0,257.81,208a257.77,257.77,0,0,0-28.14,10.39l-7.89-25.1a258.54,258.54,0,0,1,28.14-10.39A248.87,248.87,0,0,1,285,174.79Z" transform="translate(-130.86 -158.73)"/><path class="cls-9" d="M221.78,193.27l7.89,25.1c-5.35,2.35-10.46,4.82-15.29,7.39l-7.89-25.1c4.83-2.56,9.94-5,15.29-7.39Z" transform="translate(-130.86 -158.73)"/><path class="cls-8" d="M206.49,200.66l7.89,25.1q-6.36,3.39-12,7l-7.88-25.1q5.67-3.58,12-7Z" transform="translate(-130.86 -158.73)"/><path class="cls-7" d="M194.45,207.64l7.88,25.1q-5.29,3.33-9.94,6.8l-7.89-25.1c3.09-2.31,6.42-4.58,9.95-6.8Z" transform="translate(-130.86 -158.73)"/><path class="cls-6" d="M184.5,214.44l7.89,25.1c-3.06,2.27-5.89,4.58-8.47,6.9L176,221.34c2.58-2.32,5.42-4.63,8.47-6.9Z" transform="translate(-130.86 -158.73)"/><path class="cls-5" d="M176,221.34l7.89,25.1a86,86,0,0,0-7.39,7.41l-7.88-25.1a84.37,84.37,0,0,1,7.38-7.41Z" transform="translate(-130.86 -158.73)"/></g></g></g><g class="cls-2"><g class="cls-11"><g class="cls-2"><path class="cls-12" d="M363.38,192.92l7.89,25.1c-1.42-4.51-4.56-8.3-9.12-11.34l-7.88-25.1c4.56,3,7.69,6.83,9.11,11.34Z" transform="translate(-130.86 -158.73)"/><path class="cls-4" d="M354.27,181.58l7.88,25.1a41.42,41.42,0,0,0-8.61-4.29l-7.89-25.1a41.5,41.5,0,0,1,8.62,4.29Z" transform="translate(-130.86 -158.73)"/></g></g></g><g class="cls-2"><g class="cls-13"><g class="cls-2"><path class="cls-5" d="M176,221.34l7.89,25.1a86,86,0,0,0-7.39,7.41l-7.88-25.1a84.37,84.37,0,0,1,7.38-7.41Z" transform="translate(-130.86 -158.73)"/><path class="cls-4" d="M168.65,228.75l7.88,25.1a57.15,57.15,0,0,0-6.34,8.63l-7.89-25.1a57.24,57.24,0,0,1,6.35-8.63Z" transform="translate(-130.86 -158.73)"/><path class="cls-12" d="M162.3,237.38l7.89,25.1c-3.94,6.7-5.38,13.19-3.83,19.07.07.28.15.55.23.82l-7.89-25.1c-.08-.27-.16-.54-.23-.82-1.55-5.88-.1-12.37,3.83-19.07Z" transform="translate(-130.86 -158.73)"/></g></g></g><path class="cls-14" d="M255.79,190c-53.28,14.35-98.93,43.37-98.15,66,.88,25.57,58.66,30.14,123.31,8.94,59.16-19.41,92.84-50.63,80.87-69.26C351,178.9,305.34,176.62,255.79,190Z" transform="translate(-130.86 -158.73)"/><path class="cls-15" d="M264.63,226c9.46-2.89,19.07-5.17,20.33-.38s-7.35,8.08-16.4,10.84L247.35,243l-2.85-10.8Z" transform="translate(-130.86 -158.73)"/><path class="cls-15" d="M306.08,219.41c2.57,8.18-10.95,14.65-16.56,17.25L295,254c5.58-2.57,18.74-8.89,16.17-17.06Z" transform="translate(-130.86 -158.73)"/><polygon class="cls-15" points="108.09 94.24 111.11 105.59 100.78 108.75 97.76 97.4 108.09 94.24"/><polygon class="cls-15" points="139.99 84.49 143.04 96.14 130.42 100 127.37 88.35 139.99 84.49"/><polygon class="cls-16" points="129.53 96.52 132.06 105.62 112.78 111.51 110.25 102.41 129.53 96.52"/><polygon class="cls-16" points="161.42 86.77 164.29 95.23 144.35 101.39 142.14 92.66 161.42 86.77"/><path class="cls-15" d="M259.69,211.11,240.51,217l2.44,9.3,19.19-5.87c7.7-2.35,15.77-5.48,14.71-9.49S267.79,208.63,259.69,211.11Z" transform="translate(-130.86 -158.73)"/><path class="cls-6" d="M247,171.82c71.47-21.85,135.72-15.72,143.47,13.7s-43.93,71-115.4,92.86-135.7,15.71-143.45-13.72S175.54,193.67,247,171.82Zm25.15,95.5c56.65-17.32,97.6-50.26,91.45-73.59s-57-28.17-113.69-10.85-97.59,50.26-91.45,73.57,57,28.19,113.69,10.87Z" transform="translate(-130.86 -158.73)"/><path class="cls-17" d="M286.06,215.37c10.29-1.89,18.65-1.19,20.1,4.31,1.49,5.68-5.34,11.76-16.26,16.78l2.38,9L273,251.39l-2.15-8.18-12.62,3.86,2.16,8.17-19.28,5.9L239,253l-10.33,3.16-10.43-39.6,10.34-3.16-2-7.67,19.28-5.89,2,7.67,12.61-3.86-2-7.67,19.28-5.9,2.31,8.79c9.15-1.26,15.82-.23,17,4.35C298,207,293.51,211.53,286.06,215.37Zm-17.5,21.09c9.05-2.76,17.63-6.17,16.4-10.84s-10.87-2.51-20.33.38l-20.13,6.15,2.85,10.8,21.21-6.49ZM240.51,217l2.44,9.3,19.19-5.87c7.7-2.35,15.77-5.48,14.71-9.49s-9.06-2.28-17.16.2L240.51,217Z" transform="translate(-130.86 -158.73)"/><g class="cls-2"><g class="cls-18"><g class="cls-2"><path class="cls-19" d="M390.18,184.49l7.89,25.1c.11.34.2.68.3,1,1.95,7.42.12,15.62-4.85,24.08l-7.88-25.1c5-8.46,6.79-16.66,4.84-24.08-.09-.35-.19-.69-.3-1Z" transform="translate(-130.86 -158.73)"/><path class="cls-20" d="M385.64,209.6l7.88,25.1a72.32,72.32,0,0,1-8,10.9l-7.89-25.1a72.42,72.42,0,0,0,8-10.9Z" transform="translate(-130.86 -158.73)"/><path class="cls-21" d="M377.63,220.5l7.89,25.1A110.86,110.86,0,0,1,376.2,255l-7.89-25.1a109.38,109.38,0,0,0,9.32-9.35Z" transform="translate(-130.86 -158.73)"/><path class="cls-22" d="M368.31,229.85,376.2,255q-4.89,4.38-10.69,8.71l-7.89-25.1q5.79-4.32,10.69-8.71Z" transform="translate(-130.86 -158.73)"/><path class="cls-23" d="M357.62,238.56l7.89,25.1Q359.66,268,353,272.24l-7.89-25.1q6.69-4.21,12.55-8.58Z" transform="translate(-130.86 -158.73)"/><path class="cls-24" d="M345.07,247.14l7.89,25.1c-4.78,3-9.85,5.95-15.2,8.79l-7.89-25.1c5.35-2.84,10.43-5.78,15.2-8.79Z" transform="translate(-130.86 -158.73)"/><path class="cls-25" d="M329.87,255.93l7.89,25.1q-9.15,4.88-19.29,9.33l-7.89-25.1c6.75-3,13.2-6.08,19.29-9.33Z" transform="translate(-130.86 -158.73)"/><path class="cls-26" d="M310.58,265.26l7.89,25.1A327,327,0,0,1,283,303.48a315,315,0,0,1-44.24,10.2l-7.89-25.1a315.47,315.47,0,0,0,44.25-10.2,327.54,327.54,0,0,0,35.5-13.12Z" transform="translate(-130.86 -158.73)"/><path class="cls-25" d="M230.83,288.58l7.89,25.1c-7.35,1.13-14.48,1.92-21.33,2.39L209.51,291c6.84-.47,14-1.26,21.32-2.39Z" transform="translate(-130.86 -158.73)"/><path class="cls-24" d="M209.51,291l7.88,25.1c-5.84.39-11.47.55-16.86.48l-7.88-25.1c5.38.07,11-.09,16.86-.48Z" transform="translate(-130.86 -158.73)"/><path class="cls-23" d="M192.65,291.45l7.88,25.1q-7.46-.1-14.23-.8l-7.89-25.1c4.51.46,9.27.73,14.24.8Z" transform="translate(-130.86 -158.73)"/><path class="cls-22" d="M178.41,290.65l7.89,25.1a118.89,118.89,0,0,1-12.57-1.95l-7.89-25.1a118.89,118.89,0,0,0,12.57,1.95Z" transform="translate(-130.86 -158.73)"/><path class="cls-21" d="M165.84,288.7l7.89,25.1a82.35,82.35,0,0,1-11.53-3.28l-7.89-25.1a82.74,82.74,0,0,0,11.53,3.28Z" transform="translate(-130.86 -158.73)"/><path class="cls-20" d="M154.31,285.42l7.89,25.1a52.33,52.33,0,0,1-10.88-5.41L143.43,280a52.33,52.33,0,0,0,10.88,5.41Z" transform="translate(-130.86 -158.73)"/><path class="cls-19" d="M143.43,280l7.89,25.1c-5.75-3.84-9.72-8.63-11.51-14.32l-7.88-25.1c1.79,5.69,5.75,10.48,11.5,14.32Z" transform="translate(-130.86 -158.73)"/></g></g></g></g></svg>